<svg width="300" height="300" viewBox="0 0 300 300" fill="none" xmlns="http://www.w3.org/2000/svg">
<g clip-path="url(#clip0_2_28)">
<path d="M255 270.522V297.033H71.1926V270.522C71.1926 252.848 85.3316 242.244 101.238 242.244H224.955C240.861 242.244 255 252.848 255 270.522Z" fill="#F5F4F4"/>
<path d="M121.74 42C132.309 42 139.201 54.8665 147.473 66.814C155.744 66.814 158.961 66.5842 168.61 71.4092C197.101 85.6543 218.698 111.847 218.698 148.149C218.698 198.696 179.639 215.698 179.639 241.891L96.9256 242.508C96.9256 219.374 135.066 190.424 153.446 172.044C158.961 157.799 157.582 157.339 151.608 148.608C147.932 154.123 128.632 176.639 107.035 176.179C96.9256 176.179 91.4114 196.858 80.3829 196.858C65.3107 196.858 45 187.208 45 172.044C45 153.663 76.0271 131.147 78.0853 111.387C80.3829 89.3304 99.855 80.5996 106.575 68.6521C110.711 61.2998 112.549 42 121.74 42Z" fill="#F5F4F4"/>
<path d="M164.015 121.956C158.961 134.363 157.123 137.58 151.149 144.473C153.446 149.221 154.365 157.339 156.204 168.368C169.07 149.987 167.232 131.147 164.015 121.956Z" fill="#C4C4C4"/>
<path d="M119.902 96.6827C115.123 96.6827 111.477 105.873 110.252 110.468C113.928 111.387 122.199 111.387 127.254 111.387C131.68 111.387 132.462 105.107 132.309 101.737C129.092 98.9803 124.681 96.6827 119.902 96.6827Z" fill="#838383"/>
<path d="M218.698 148.149C218.698 198.696 179.639 215.698 179.639 241.891H232.484L244.431 193.641C248.567 143.554 230.646 83.3567 168.611 71.4092C197.101 85.6543 218.698 111.847 218.698 148.149Z" fill="#C4C4C4"/>
<path d="M232.024 242.963C244.823 245.622 255 255.528 255 270.522V297.033H71.1926V270.522C71.1926 254.465 82.8625 244.244 96.9256 242.508M232.024 242.963C229.737 242.488 227.366 242.244 224.955 242.244H101.238C99.7826 242.244 98.342 242.333 96.9256 242.508M232.024 242.963C239.376 226.267 245.35 199.155 245.35 177.558C245.35 110.928 201.696 66.814 147.473 66.814C139.201 54.8665 132.309 42 121.74 42C112.549 42 110.711 61.2998 106.576 68.6521C99.855 80.5996 80.383 89.3304 78.0853 111.387C76.0271 131.147 45 153.663 45 172.044C45 187.208 65.3107 196.858 80.3829 196.858C91.4114 196.858 96.9256 176.179 107.035 176.179C128.632 176.639 147.932 154.123 151.608 148.608C155.744 152.744 155.744 171.125 149.311 177.558C130.93 195.939 96.9256 219.374 96.9256 242.508" stroke="#838383" stroke-width="6"/>
</g>
<defs>
<clipPath id="clip0_2_28">
<rect width="300" height="300" fill="white"/>
</clipPath>
</defs>
</svg>
