<svg width="648" height="251" viewBox="0 0 648 251" fill="none" xmlns="http://www.w3.org/2000/svg">
<g clip-path="url(#clip0_111_13)">
<path d="M58.8691 249.387H27.9369V160.193H-0.0195312V134.899H86.7475V160.193H58.8691V249.387Z" fill="black"/>
<path d="M200.452 134.899V203.811C200.452 218.794 196.197 230.41 187.687 238.659C179.231 246.855 167.014 250.953 151.039 250.953C135.429 250.953 123.422 246.96 115.017 238.972C106.664 230.984 102.487 219.499 102.487 204.516V134.899H133.576V202.088C133.576 210.18 135.09 216.053 138.118 219.708C141.146 223.363 145.61 225.189 151.509 225.189C157.826 225.189 162.394 223.388 165.213 219.786C168.085 216.132 169.52 210.18 169.52 201.931V134.899H200.452Z" fill="#00AEEF"/>
<path d="M76.1117 29.4753C29.0394 45.9814 21.9784 86.0674 30.2161 112.006C30.2161 84.8886 49.0451 71.9196 77.2885 49.5185C79.642 57.7715 62.7255 73.0986 61.99 78.9937C61.0485 86.5397 67.8741 91.9628 72.5813 91.9628C80.8192 91.9628 87.8798 82.531 92.5869 76.6356C94.9404 89.6045 85.5262 113.185 66.6972 120.259C102.002 121.438 131.421 78.9937 133.776 55.4135C127.892 61.3085 119.654 66.0246 111.416 66.0246C102.002 66.0246 99.6483 62.4875 99.6483 54.2344C99.6483 36.5493 147.897 20.0432 146.721 0C130.245 17.6851 103.178 19.9842 76.1117 29.4753Z" fill="black"/>
<path d="M278.453 144.859C272.151 144.859 266.474 145.953 261.422 148.141C256.422 150.276 252.151 153.401 248.609 157.516C245.12 161.578 242.438 166.5 240.562 172.281C238.688 178.062 237.75 184.573 237.75 191.812C237.75 201.396 239.234 209.729 242.203 216.812C245.224 223.844 249.703 229.286 255.641 233.141C261.63 236.995 269.104 238.922 278.062 238.922C283.167 238.922 287.958 238.505 292.438 237.672C296.969 236.786 301.37 235.693 305.641 234.391V245.953C301.474 247.516 297.099 248.661 292.516 249.391C287.932 250.172 282.49 250.562 276.188 250.562C264.573 250.562 254.859 248.167 247.047 243.375C239.286 238.531 233.453 231.708 229.547 222.906C225.693 214.104 223.766 203.714 223.766 191.734C223.766 183.089 224.964 175.198 227.359 168.062C229.807 160.875 233.349 154.677 237.984 149.469C242.672 144.26 248.401 140.25 255.172 137.438C261.995 134.573 269.807 133.141 278.609 133.141C284.391 133.141 289.964 133.714 295.328 134.859C300.693 136.005 305.536 137.646 309.859 139.781L304.547 151.031C300.901 149.365 296.891 147.932 292.516 146.734C288.193 145.484 283.505 144.859 278.453 144.859Z" fill="black"/>
<path d="M341.422 127.438V163.766C341.422 165.849 341.37 167.958 341.266 170.094C341.161 172.177 340.979 174.104 340.719 175.875H341.578C343.349 172.854 345.589 170.328 348.297 168.297C351.057 166.214 354.182 164.651 357.672 163.609C361.161 162.516 364.859 161.969 368.766 161.969C375.641 161.969 381.37 163.062 385.953 165.25C390.589 167.438 394.052 170.823 396.344 175.406C398.688 179.99 399.859 185.927 399.859 193.219V249H387.047V194.078C387.047 186.943 385.406 181.604 382.125 178.062C378.896 174.521 373.922 172.75 367.203 172.75C360.849 172.75 355.771 173.974 351.969 176.422C348.219 178.818 345.51 182.359 343.844 187.047C342.229 191.734 341.422 197.464 341.422 204.234V249H328.453V127.438H341.422Z" fill="black"/>
<path d="M459.547 161.812C466.839 161.812 473.089 163.427 478.297 166.656C483.505 169.885 487.49 174.417 490.25 180.25C493.01 186.031 494.391 192.802 494.391 200.562V208.609H435.25C435.406 218.661 437.906 226.318 442.75 231.578C447.594 236.839 454.417 239.469 463.219 239.469C468.635 239.469 473.427 238.974 477.594 237.984C481.76 236.995 486.083 235.536 490.562 233.609V245.016C486.24 246.943 481.943 248.349 477.672 249.234C473.453 250.12 468.453 250.562 462.672 250.562C454.443 250.562 447.255 248.896 441.109 245.562C435.016 242.177 430.276 237.229 426.891 230.719C423.505 224.208 421.812 216.24 421.812 206.812C421.812 197.594 423.349 189.625 426.422 182.906C429.547 176.135 433.922 170.927 439.547 167.281C445.224 163.635 451.891 161.812 459.547 161.812ZM459.391 172.438C452.464 172.438 446.943 174.703 442.828 179.234C438.714 183.766 436.266 190.094 435.484 198.219H480.797C480.745 193.115 479.938 188.635 478.375 184.781C476.865 180.875 474.547 177.854 471.422 175.719C468.297 173.531 464.286 172.438 459.391 172.438Z" fill="black"/>
<path d="M571.812 225.562C571.812 231.031 570.432 235.641 567.672 239.391C564.964 243.089 561.057 245.875 555.953 247.75C550.901 249.625 544.859 250.562 537.828 250.562C531.839 250.562 526.656 250.094 522.281 249.156C517.906 248.219 514.078 246.891 510.797 245.172V233.219C514.286 234.938 518.453 236.5 523.297 237.906C528.141 239.312 533.089 240.016 538.141 240.016C545.536 240.016 550.901 238.818 554.234 236.422C557.568 234.026 559.234 230.771 559.234 226.656C559.234 224.312 558.557 222.255 557.203 220.484C555.901 218.661 553.688 216.917 550.562 215.25C547.438 213.531 543.115 211.656 537.594 209.625C532.125 207.542 527.385 205.484 523.375 203.453C519.417 201.37 516.344 198.844 514.156 195.875C512.021 192.906 510.953 189.052 510.953 184.312C510.953 177.073 513.87 171.526 519.703 167.672C525.589 163.766 533.297 161.812 542.828 161.812C547.984 161.812 552.802 162.333 557.281 163.375C561.812 164.365 566.031 165.719 569.938 167.438L565.562 177.828C562.021 176.318 558.245 175.042 554.234 174C550.224 172.958 546.135 172.438 541.969 172.438C535.979 172.438 531.37 173.427 528.141 175.406C524.964 177.385 523.375 180.094 523.375 183.531C523.375 186.188 524.104 188.375 525.562 190.094C527.073 191.812 529.469 193.427 532.75 194.938C536.031 196.448 540.354 198.219 545.719 200.25C551.083 202.229 555.719 204.286 559.625 206.422C563.531 208.505 566.526 211.057 568.609 214.078C570.745 217.047 571.812 220.875 571.812 225.562Z" fill="black"/>
<path d="M648.062 225.562C648.062 231.031 646.682 235.641 643.922 239.391C641.214 243.089 637.307 245.875 632.203 247.75C627.151 249.625 621.109 250.562 614.078 250.562C608.089 250.562 602.906 250.094 598.531 249.156C594.156 248.219 590.328 246.891 587.047 245.172V233.219C590.536 234.938 594.703 236.5 599.547 237.906C604.391 239.312 609.339 240.016 614.391 240.016C621.786 240.016 627.151 238.818 630.484 236.422C633.818 234.026 635.484 230.771 635.484 226.656C635.484 224.312 634.807 222.255 633.453 220.484C632.151 218.661 629.938 216.917 626.812 215.25C623.688 213.531 619.365 211.656 613.844 209.625C608.375 207.542 603.635 205.484 599.625 203.453C595.667 201.37 592.594 198.844 590.406 195.875C588.271 192.906 587.203 189.052 587.203 184.312C587.203 177.073 590.12 171.526 595.953 167.672C601.839 163.766 609.547 161.812 619.078 161.812C624.234 161.812 629.052 162.333 633.531 163.375C638.062 164.365 642.281 165.719 646.188 167.438L641.812 177.828C638.271 176.318 634.495 175.042 630.484 174C626.474 172.958 622.385 172.438 618.219 172.438C612.229 172.438 607.62 173.427 604.391 175.406C601.214 177.385 599.625 180.094 599.625 183.531C599.625 186.188 600.354 188.375 601.812 190.094C603.323 191.812 605.719 193.427 609 194.938C612.281 196.448 616.604 198.219 621.969 200.25C627.333 202.229 631.969 204.286 635.875 206.422C639.781 208.505 642.776 211.057 644.859 214.078C646.995 217.047 648.062 220.875 648.062 225.562Z" fill="black"/>
</g>
<defs>
<clipPath id="clip0_111_13">
<rect width="648" height="251" fill="white"/>
</clipPath>
</defs>
</svg>
