<svg width="264" height="117" viewBox="0 0 264 117" fill="none" xmlns="http://www.w3.org/2000/svg">
<path d="M27.4021 116.27H13.0087V74.6854H0V62.8928H40.3743V74.6854H27.4021V116.27Z" fill="white"/>
<path d="M93.2836 62.8928V95.0212C93.2836 102.007 91.3038 107.422 87.3441 111.268C83.4087 115.089 77.7242 117 70.2907 117C63.0272 117 57.4399 115.138 53.5288 111.414C49.642 107.69 47.6986 102.335 47.6986 95.3498V62.8928H62.1648V94.218C62.1648 97.9907 62.8693 100.729 64.2783 102.433C65.6872 104.136 67.7643 104.988 70.5093 104.988C73.4487 104.988 75.5743 104.149 76.8861 102.469C78.2222 100.765 78.8903 97.9907 78.8903 94.145V62.8928H93.2836Z" fill="white"/>
<path d="M148.561 89.0702C148.561 97.8812 146.169 104.623 141.383 109.296C136.622 113.945 129.759 116.27 120.795 116.27H106.037V62.8928H122.362C130.646 62.8928 137.083 65.1929 141.675 69.7931C146.266 74.3933 148.561 80.819 148.561 89.0702ZM142.002 89.2892C142.002 82.3281 140.253 77.0829 136.755 73.5536C133.281 70.0244 128.107 68.2597 121.232 68.2597H112.232V110.903H119.775C127.16 110.903 132.711 109.09 136.427 105.463C140.144 101.812 142.002 96.4208 142.002 89.2892Z" fill="white"/>
<path d="M176.437 117C170.534 117 165.87 115.199 162.445 111.597C159.044 107.994 157.343 102.993 157.343 96.5912C157.343 90.1411 158.922 85.0176 162.08 81.2206C165.263 77.4236 169.526 75.5251 174.87 75.5251C179.875 75.5251 183.834 77.1802 186.749 80.4904C189.665 83.7763 191.122 88.1209 191.122 93.5244V97.3579H163.611C163.732 102.055 164.91 105.621 167.145 108.055C169.405 110.489 172.575 111.706 176.656 111.706C180.956 111.706 185.207 110.806 189.41 109.004V114.408C187.272 115.333 185.243 115.99 183.324 116.379C181.429 116.793 179.134 117 176.437 117ZM174.798 80.6C171.591 80.6 169.028 81.6466 167.109 83.7398C165.214 85.833 164.097 88.7294 163.757 92.4291H184.636C184.636 88.6077 183.786 85.687 182.085 83.6668C180.385 81.6222 177.956 80.6 174.798 80.6Z" fill="white"/>
<path d="M207.52 116.27H201.471V59.4609H207.52V116.27Z" fill="white"/>
<path d="M238.347 80.9651H228.181V116.27H222.132V80.9651H214.99V78.2268L222.132 76.0363V73.8092C222.132 63.9759 226.419 59.0593 234.995 59.0593C237.108 59.0593 239.586 59.4853 242.428 60.3372L240.861 65.1929C238.529 64.4384 236.537 64.0611 234.885 64.0611C232.602 64.0611 230.913 64.8278 229.82 66.3612C228.727 67.8703 228.181 70.3043 228.181 73.6632V76.2553H238.347V80.9651Z" fill="white"/>
<path d="M258.534 111.998C259.603 111.998 260.635 111.925 261.631 111.779C262.627 111.609 263.417 111.438 264 111.268V115.905C263.344 116.221 262.372 116.477 261.085 116.671C259.822 116.89 258.68 117 257.66 117C249.935 117 246.072 112.923 246.072 104.769V80.9651H240.351V78.0443L246.072 75.5251L248.623 66.9819H252.121V76.2553H263.708V80.9651H252.121V104.514C252.121 106.923 252.692 108.773 253.834 110.063C254.975 111.353 256.542 111.998 258.534 111.998Z" fill="white"/>
<path d="M35.4254 13.742C13.5217 21.4376 10.2361 40.1267 14.0693 52.2197C14.0693 39.577 22.8308 33.5305 35.973 23.0866C37.0682 26.9344 29.1965 34.0802 28.8543 36.8286C28.4162 40.3466 31.5923 42.8751 33.7826 42.8751C37.6158 42.8751 40.9014 38.4777 43.0917 35.7293C44.1869 41.7758 39.8062 52.7694 31.0447 56.0675C47.4725 56.6172 61.1623 36.8286 62.2575 25.835C59.5196 28.5834 55.6864 30.7821 51.8532 30.7821C47.4725 30.7821 46.3773 29.1331 46.3773 25.2853C46.3773 17.0401 68.8287 9.34458 68.2811 0C60.6147 8.24522 48.0201 9.31709 35.4254 13.742Z" fill="white"/>
</svg>
