<svg width="717" height="315" viewBox="0 0 717 315" fill="none" xmlns="http://www.w3.org/2000/svg">
<g clip-path="url(#clip0_2_4)">
<path d="M78.418 311H39.8438V199.77H4.98047V168.227H113.184V199.77H78.418V311ZM403.125 238.246C403.125 261.814 396.712 279.848 383.887 292.348C371.126 304.783 352.734 311 328.711 311H289.16V168.227H332.91C355.111 168.227 372.363 174.379 384.668 186.684C396.973 198.988 403.125 216.176 403.125 238.246ZM385.547 238.832C385.547 220.212 380.859 206.182 371.484 196.742C362.174 187.302 348.307 182.582 329.883 182.582H305.762V296.645H325.977C345.768 296.645 360.645 291.794 370.605 282.094C380.566 272.328 385.547 257.908 385.547 238.832ZM477.832 312.953C462.012 312.953 449.512 308.135 440.332 298.5C431.217 288.865 426.66 275.486 426.66 258.363C426.66 241.111 430.892 227.406 439.355 217.25C447.884 207.094 459.31 202.016 473.633 202.016C487.044 202.016 497.656 206.443 505.469 215.297C513.281 224.086 517.188 235.707 517.188 250.16V260.414H443.457C443.783 272.979 446.94 282.517 452.93 289.027C458.984 295.538 467.48 298.793 478.418 298.793C489.941 298.793 501.335 296.384 512.598 291.566V306.02C506.868 308.493 501.432 310.251 496.289 311.293C491.211 312.4 485.059 312.953 477.832 312.953ZM473.438 215.59C464.844 215.59 457.975 218.389 452.832 223.988C447.754 229.587 444.759 237.335 443.848 247.23H499.805C499.805 237.009 497.526 229.197 492.969 223.793C488.411 218.324 481.901 215.59 473.438 215.59ZM561.133 311H544.922V159.047H561.133V311ZM643.75 216.566H616.504V311H600.293V216.566H581.152V209.242L600.293 203.383V197.426C600.293 171.124 611.784 157.973 634.766 157.973C640.43 157.973 647.07 159.112 654.688 161.391L650.488 174.379C644.238 172.361 638.9 171.352 634.473 171.352C628.353 171.352 623.828 173.402 620.898 177.504C617.969 181.54 616.504 188.051 616.504 197.035V203.969H643.75V216.566ZM697.852 299.574C700.716 299.574 703.483 299.379 706.152 298.988C708.822 298.533 710.938 298.077 712.5 297.621V310.023C710.742 310.87 708.138 311.553 704.688 312.074C701.302 312.66 698.242 312.953 695.508 312.953C674.805 312.953 664.453 302.048 664.453 280.238V216.566H649.121V208.754L664.453 202.016L671.289 179.164H680.664V203.969H711.719V216.566H680.664V279.555C680.664 286 682.194 290.948 685.254 294.398C688.314 297.849 692.513 299.574 697.852 299.574Z" fill="black"/>
<path d="M254.98 168.227V254.164C254.98 272.849 249.674 287.335 239.062 297.621C228.516 307.842 213.281 312.953 193.359 312.953C173.893 312.953 158.919 307.973 148.438 298.012C138.021 288.051 132.812 273.728 132.812 255.043V168.227H171.582V252.016C171.582 262.107 173.47 269.431 177.246 273.988C181.022 278.546 186.589 280.824 193.945 280.824C201.823 280.824 207.52 278.578 211.035 274.086C214.616 269.529 216.406 262.107 216.406 251.82V168.227H254.98Z" fill="#00AEEF"/>
<path d="M99.9205 36.7574C41.2186 57.3415 32.4132 107.331 42.6861 139.678C42.6861 105.861 66.1669 89.6879 101.388 61.7524C104.323 72.0444 83.2272 91.1582 82.3099 98.5097C81.1359 107.92 89.6477 114.683 95.5179 114.683C105.791 114.683 114.596 102.921 120.466 95.5691C123.401 111.742 111.661 141.148 88.1801 149.97C132.207 151.44 168.895 98.5097 171.831 69.1038C164.493 76.4553 154.22 82.3365 143.947 82.3365C132.207 82.3365 129.272 77.9256 129.272 67.6335C129.272 45.5791 189.441 24.995 187.974 0C167.428 22.0544 133.674 24.9215 99.9205 36.7574Z" fill="black"/>
</g>
<defs>
<clipPath id="clip0_2_4">
<rect width="717" height="315" fill="white"/>
</clipPath>
</defs>
</svg>
