<svg width="292" height="113" viewBox="0 0 292 113" fill="none" xmlns="http://www.w3.org/2000/svg">
<g clip-path="url(#clip0_122_10)">
<path d="M26.5273 112.274H12.5887V72.1188H-0.00897217V60.7315H39.0897V72.1188H26.5273V112.274Z" fill="white"/>
<path d="M90.3269 60.7315V91.7555C90.3269 98.501 88.4096 103.731 84.575 107.444C80.7643 111.134 75.2592 112.979 68.0605 112.979C61.0266 112.979 55.6158 111.181 51.8286 107.585C48.0645 103.989 46.1822 98.8183 46.1822 92.0728V60.7315H60.1915V90.9801C60.1915 94.623 60.8738 97.267 62.2382 98.9121C63.6026 100.558 65.6142 101.38 68.2723 101.38C71.119 101.38 73.1775 100.569 74.4477 98.9475C75.7416 97.3024 76.3884 94.623 76.3884 90.9093V60.7315H90.3269Z" fill="white"/>
<path d="M34.2971 13.2698C13.0855 20.7008 9.9037 38.7475 13.6157 50.425C13.6157 38.2168 22.1004 32.3781 34.8273 22.2932C35.8879 26.0087 28.265 32.9089 27.9336 35.5629C27.5094 38.9601 30.5851 41.4016 32.7062 41.4016C36.4183 41.4016 39.6 37.1554 41.7211 34.5013C42.7816 40.3399 38.5394 50.9557 30.0547 54.1405C45.9636 54.6712 59.2206 35.5629 60.2815 24.9471C57.63 27.6011 53.9179 29.7242 50.2058 29.7242C45.9636 29.7242 44.9031 28.1318 44.9031 24.4163C44.9031 16.4545 66.6448 9.02342 66.1147 0C58.6905 7.96184 46.4937 8.99689 34.2971 13.2698Z" fill="white"/>
<path d="M125.476 65.2156C122.636 65.2156 120.078 65.708 117.801 66.6928C115.548 67.6542 113.623 69.061 112.028 70.9134C110.455 72.7423 109.246 74.9582 108.401 77.5609C107.557 80.1636 107.134 83.0946 107.134 86.3538C107.134 90.6682 107.803 94.4199 109.141 97.6088C110.502 100.774 112.52 103.225 115.196 104.96C117.895 106.695 121.263 107.562 125.3 107.562C127.6 107.562 129.759 107.375 131.777 107C133.819 106.601 135.802 106.109 137.727 105.522V110.728C135.849 111.431 133.878 111.947 131.812 112.275C129.747 112.627 127.295 112.803 124.455 112.803C119.221 112.803 114.844 111.724 111.323 109.567C107.826 107.387 105.198 104.315 103.438 100.352C101.701 96.3895 100.832 91.7117 100.832 86.3187C100.832 82.4263 101.372 78.874 102.452 75.6616C103.555 72.4258 105.151 69.6355 107.24 67.2907C109.352 64.9459 111.934 63.1404 114.985 61.8743C118.059 60.5846 121.58 59.9398 125.546 59.9398C128.151 59.9398 130.662 60.1977 133.08 60.7136C135.497 61.2294 137.68 61.968 139.628 62.9294L137.234 67.9941C135.591 67.2438 133.784 66.599 131.812 66.0597C129.864 65.4969 127.752 65.2156 125.476 65.2156Z" fill="white"/>
<path d="M153.85 57.3723V73.7272C153.85 74.6651 153.827 75.6147 153.78 76.5761C153.733 77.514 153.651 78.3816 153.534 79.1788H153.921C154.719 77.8188 155.728 76.6816 156.948 75.7671C158.192 74.8292 159.6 74.1258 161.173 73.6568C162.745 73.1644 164.412 72.9182 166.172 72.9182C169.27 72.9182 171.852 73.4106 173.917 74.3954C176.006 75.3802 177.567 76.9043 178.599 78.9678C179.655 81.0312 180.183 83.7042 180.183 86.9869V112.1H174.41V87.3738C174.41 84.1615 173.671 81.7581 172.192 80.1636C170.737 78.5691 168.495 77.7719 165.468 77.7719C162.605 77.7719 160.316 78.3229 158.603 79.425C156.913 80.5036 155.693 82.098 154.942 84.2084C154.214 86.3187 153.85 88.8979 153.85 91.9462V112.1H148.007V57.3723H153.85Z" fill="white"/>
<path d="M207.08 72.8479C210.365 72.8479 213.182 73.5747 215.529 75.0285C217.876 76.4823 219.671 78.5222 220.915 81.1484C222.159 83.7511 222.781 86.7993 222.781 90.2931V93.9158H196.131C196.201 98.4412 197.328 101.888 199.511 104.256C201.693 106.625 204.768 107.809 208.734 107.809C211.175 107.809 213.334 107.586 215.212 107.14C217.089 106.695 219.037 106.038 221.056 105.171V110.306C219.108 111.173 217.172 111.807 215.247 112.205C213.346 112.604 211.093 112.803 208.488 112.803C204.78 112.803 201.541 112.053 198.771 110.552C196.025 109.028 193.89 106.8 192.364 103.869C190.839 100.938 190.076 97.3509 190.076 93.1068C190.076 88.9566 190.768 85.369 192.153 82.3443C193.561 79.296 195.533 76.9512 198.067 75.3099C200.625 73.6685 203.63 72.8479 207.08 72.8479ZM207.009 77.6312C203.888 77.6312 201.4 78.6512 199.546 80.6912C197.692 82.7311 196.589 85.5801 196.237 89.2379H216.655C216.632 86.94 216.268 84.9235 215.564 83.1884C214.883 81.4298 213.839 80.0698 212.431 79.1084C211.023 78.1236 209.215 77.6312 207.009 77.6312Z" fill="white"/>
<path d="M257.668 101.548C257.668 104.01 257.047 106.085 255.803 107.773C254.582 109.438 252.822 110.693 250.522 111.537C248.245 112.381 245.523 112.803 242.354 112.803C239.655 112.803 237.32 112.592 235.349 112.17C233.377 111.748 231.652 111.15 230.174 110.376V104.995C231.746 105.769 233.624 106.472 235.806 107.105C237.989 107.738 240.219 108.055 242.495 108.055C245.828 108.055 248.245 107.516 249.747 106.437C251.249 105.358 252.001 103.893 252.001 102.04C252.001 100.985 251.695 100.059 251.085 99.2619C250.498 98.4412 249.501 97.6557 248.093 96.9054C246.685 96.1316 244.737 95.2875 242.249 94.373C239.785 93.4351 237.649 92.5089 235.842 91.5944C234.058 90.6565 232.673 89.5193 231.688 88.1828C230.725 86.8462 230.244 85.1111 230.244 82.9773C230.244 79.7181 231.558 77.2209 234.187 75.4857C236.839 73.7272 240.313 72.8479 244.608 72.8479C246.931 72.8479 249.102 73.0823 251.12 73.5513C253.162 73.9968 255.063 74.6065 256.824 75.3802L254.852 80.0581C253.256 79.3781 251.555 78.8036 249.747 78.3347C247.94 77.8657 246.098 77.6312 244.22 77.6312C241.521 77.6312 239.444 78.0767 237.989 78.9678C236.557 79.8588 235.842 81.0781 235.842 82.6256C235.842 83.8215 236.17 84.8063 236.827 85.5801C237.508 86.3538 238.588 87.0807 240.066 87.7607C241.545 88.4407 243.493 89.2379 245.91 90.1524C248.328 91.0434 250.416 91.9696 252.177 92.931C253.937 93.8689 255.286 95.0178 256.225 96.3778C257.187 97.7143 257.668 99.4378 257.668 101.548Z" fill="white"/>
<path d="M292.028 101.548C292.028 104.01 291.406 106.085 290.162 107.773C288.942 109.438 287.182 110.693 284.882 111.537C282.605 112.381 279.882 112.803 276.714 112.803C274.015 112.803 271.68 112.592 269.708 112.17C267.737 111.748 266.012 111.15 264.533 110.376V104.995C266.106 105.769 267.983 106.472 270.166 107.105C272.349 107.738 274.578 108.055 276.855 108.055C280.188 108.055 282.605 107.516 284.107 106.437C285.609 105.358 286.36 103.893 286.36 102.04C286.36 100.985 286.055 100.059 285.445 99.2619C284.858 98.4412 283.861 97.6557 282.452 96.9054C281.044 96.1316 279.096 95.2875 276.608 94.373C274.144 93.4351 272.008 92.5089 270.201 91.5944C268.418 90.6565 267.033 89.5193 266.047 88.1828C265.085 86.8462 264.604 85.1111 264.604 82.9773C264.604 79.7181 265.918 77.2209 268.547 75.4857C271.199 73.7272 274.672 72.8479 278.967 72.8479C281.291 72.8479 283.462 73.0823 285.48 73.5513C287.522 73.9968 289.423 74.6065 291.183 75.3802L289.212 80.0581C287.616 79.3781 285.914 78.8036 284.107 78.3347C282.3 77.8657 280.457 77.6312 278.58 77.6312C275.881 77.6312 273.804 78.0767 272.349 78.9678C270.917 79.8588 270.201 81.0781 270.201 82.6256C270.201 83.8215 270.53 84.8063 271.187 85.5801C271.868 86.3538 272.947 87.0807 274.426 87.7607C275.904 88.4407 277.852 89.2379 280.27 90.1524C282.687 91.0434 284.776 91.9696 286.536 92.931C288.296 93.8689 289.646 95.0178 290.585 96.3778C291.547 97.7143 292.028 99.4378 292.028 101.548Z" fill="white"/>
</g>
<defs>
<clipPath id="clip0_122_10">
<rect width="292" height="113" fill="white"/>
</clipPath>
</defs>
</svg>
