<svg width="200" height="200" viewBox="0 0 200 200" fill="none" xmlns="http://www.w3.org/2000/svg">
<g clip-path="url(#clip0_102_21)">
<rect width="200" height="200" fill="white"/>
<g filter="url(#filter0_i_102_21)">
<path d="M-8.49882 97.5001C-7.14948 98.6567 -5.96364 99.8876 -4.93163 101.169C8.50493 115.336 12.7269 123.077 45.5 124C54.7 124 54 137.5 47.5 139C49.5 140.2 56.5 141 61 141C71.8 141 66.5 124.5 56.5 127.5C58.5 122.7 69.5 127.5 69.5 135C69.5 144.2 62 151 54 152C42.432 153.446 24.8235 153.498 15.0602 135.583C18.1195 142.545 21.5756 158.137 18 163.5C14 169.5 -1.5 195.042 10 196C14.8 196.4 16.5 191 10 191C10 188.2 16.5 190.2 16.5 193C16.5 195.8 14 199.5 9 199.5C3 198.7 -4 191 -4 180L-8.49882 184.5C-13.4998 192 -19 173 -8.49882 163.5C-4.09826 162.3 7.50049 152 6.00049 139C6.00049 145 -0.999512 157.875 -8.49882 161C-13.2983 163 -16.9995 147 -8.49882 147C-7.29826 147 -1.99951 141 -8.49882 141C-17.6988 141 -19.9995 133.712 -8.49882 131.5C0.898825 129.693 4.74408 113.188 -4.93163 101.169C-6.04964 99.9908 -7.23145 98.7676 -8.49882 97.5001Z" fill="#8BCDE6"/>
<path d="M166 84.5C176 84 188 70 178.5 51C180.899 53.4 188 60 188 70C188 78 175 92 166 84.5Z" fill="#8BCDE6"/>
<path d="M18.5 76.5002C22 73.5002 35 88.0001 -9 89.5002C-3 96.2999 9.5 100 22 88.5002C29.2573 81.8236 25 70.9288 18.5 76.5002Z" fill="#8BCDE6"/>
<path d="M210 37.5C206 49 183 47 172.5 36.5C181 40 206.889 39 198 19C194.8 11.8 187.5 13.5 183 21.5C179.8 15.9 188 8 197 8C207 8 215.043 23 210 37.5Z" fill="#8BCDE6"/>
<path d="M180 95C180 84.5 200 85 197 65.5C201.688 71.5 198.75 83 196.5 86C195.3 87.6 191 91.5 195 92C199 92.5 205 80 200 63C205 66 207.615 85.5 206 96C204 109 180 115.5 180 95Z" fill="#8BCDE6"/>
<path d="M184.5 121.5C170 124 191.999 148 216 121.5C212.5 127.5 196 140.5 185.5 146.5C174.794 152.618 156.5 161.833 147 155.5C143.4 153.1 130 147 122 149.5C122 147.9 120 144.333 119 143.5C119.4 141.9 123 140 129.5 135.5C126.3 135.1 122.667 130 122 128C120.833 124.5 114.5 122.5 114.5 128.5C109 122.5 117.001 114.5 126.5 117.5C126.5 110.3 127.417 101.5 134.5 96.5001C143 90.5 163 87.5001 158 100.5C159.5 88.5001 132.5 98.0002 152.5 119.5C154 113 171.5 110.5 168 120.5C169 116.5 163.5 115.501 162.501 118.5C160.5 124.5 164.5 129 170.001 131.5C170.001 125.9 178.001 117 184.5 121.5Z" fill="#8BCDE6"/>
<path d="M178 23.0007C173.2 14.6007 183.5 -4.99958 209 -0.999345C200.5 -10.5 168.859 -4.99975 167 10.5004C165.5 23.0007 174.999 31.29 181 33.5004C190 36.816 199.5 24.5004 190.5 19.5004C196.1 26.3004 181.714 29.5004 178 23.0007Z" fill="#8BCDE6"/>
<path d="M68 77.5001C66.5 62.5001 42.5 50 8 73.5001C19.5 73.5001 48 68.8688 63.5 80.5001C70.8293 86.0001 64.5 94.0001 59.5 87.5001C62.5 101 78 83.5001 68 77.5001Z" fill="#8BCDE6"/>
<path d="M5.00017 46.0005C11.0002 50.0005 1.00017 63.5004 -8.49983 72.0005C14 70.5001 35.5 26.5001 5.00017 26.5001C-11.4999 26.5001 -10.9999 63.5001 -8.49983 67.0005C0.0564537 63.0001 -0.99983 42.0006 5.00017 46.0005Z" fill="#8BCDE6"/>
<path d="M25.4995 28.4988C29.9995 47.9988 19.4995 65.4988 -8.50052 74.9988C33 66.5001 57.2961 38.5001 41 -1.49978C35.5 -14.9999 48 -16.9999 44.5 -6.50106C54.9 -14.9016 36 -27.9999 27.4995 -6.50106C9 -17.0004 -12.9997 -6.50091 -8.50052 12.4988C-3.70052 2.49882 20.9995 8.99903 25.4995 28.4988Z" fill="#8BCDE6"/>
<path d="M25 100.5C17 101 0 102.5 -8 93.5001C7.5 113 14.8333 117 37.5 113C46 111.5 50.5 95.6876 41 94.5001C34.6 93.7001 34.1667 97.3335 34.5 99.5001C34.5 95.5001 43.2143 95.0001 44 100.5C44.3333 102.833 43.2 107.5 36 107.5C28.8 107.5 25.6667 102.833 25 100.5Z" fill="#8BCDE6"/>
<path d="M23.4999 183C21.0999 176.6 28 167.5 23.4999 148L40.5 163.5C48.9 169.9 48.5 182 45 188.5C41.5 197 43.4839 205.5 53.5 219C42 203.5 28.9374 197.5 23.4999 183Z" fill="#8BCDE6"/>
<path d="M113.001 43.9999C113.001 19.5999 161.501 -26.4999 212.501 -6.00013C187 -12.4999 141.5 -9.49988 129.5 31.5001C125.5 45.1668 134 58.0386 149.5 64.0001C156 66.5001 170.846 63.0001 169 55.0001C167.8 49.8001 161 49.0001 156 52.5001C156 49.7001 160 46.5001 165.5 46.5001C172.3 46.5001 177.5 61.5001 167.5 73.0001C167.5 78.2001 158.5 90.5001 136 84.0001C136 88.5001 130.5 98.0001 123.501 97.5001C122.5 95.5001 118 92.0001 116.5 92.5001C115 89.0001 118 87.5001 120.5 87.5001C116 91.0001 125.069 97.0001 123.501 85.5001C122.301 76.7001 113.001 76.5001 113.001 43.9999Z" fill="#8BCDE6"/>
<path d="M136.5 41.9999C128.1 26.3999 145.001 6.00012 167 -3.49988C158.751 0.0623875 148.5 11.0003 148.5 23.4999C148.5 25.4999 148.5 26.4999 150.5 26.4999C153.5 26.4999 149 7.49988 168.999 -0.000122547C155.5 9.49988 163 22.4999 163 33.9999C163 45.4999 143.5 54.9999 136.5 41.9999Z" fill="#8BCDE6"/>
<path d="M83 -12.0002C83 -4.80019 93.5 8.9998 124 8.9998C118.8 8.9998 92.5002 -3.99988 88.5 -12.0002C86.1 -16.8002 92.5 -19.9999 98.5 -18.5C94.5 -24.9999 83 -20.0002 83 -12.0002Z" fill="#8BCDE6"/>
<path d="M69 5.50012C71.2627 13.9854 81.5 27.5001 124.999 12.4993C95 9.00012 81.7692 2.23313 73.5 -5.00071C69.5 -8.49988 71 -16.4999 79.4995 -13.5007C75 -22.9999 62.9994 -16.0004 67.9995 -5.00071C71 0.000102997 67 -1.99988 69 5.50012Z" fill="#8BCDE6"/>
<path d="M122.5 104.5C120 114 99.5 117.5 93 102C95.5 102 99 101.5 101.5 100C101.9 100.4 106 107.5 112.5 107.5C120 107.5 122.5 90.0001 110 99.5004C114.5 88.0001 125 95.0006 122.5 104.5Z" fill="#8BCDE6"/>
<path d="M91.5002 93.5001C89.1002 88.7001 91.5002 67.5001 99.5002 53.5001C96.7003 59.9001 95.5 81.0001 97.5 93.5001C96 94.5001 93.5 94.5001 91.5002 93.5001Z" fill="#8BCDE6"/>
<path d="M73.5004 80.0001C68.5 64.5001 75.9999 31.0001 126.5 15.0001C87 51.0001 80.5 95.5001 94.5 95.5001C100.1 95.5001 103.399 91.0001 99 86.5001C105.4 86.5001 104.5 98.0808 99 99.5001C86.6 102.7 82 98.0001 80.5 88.5001C77.3 87.7001 75 84.6485 73.5004 80.0001Z" fill="#8BCDE6"/>
<path d="M101.5 123C101.5 129 84 146 60 152.5C78.5 163.5 115.019 146 106.5 123C101.5 109.5 92 117.5 94.5 123C94.5 117 101.5 118.5 101.5 123Z" fill="#8BCDE6"/>
<path d="M109.5 157.5C92 167.5 55 162 34 154.5C44.5 166.5 88.5 200 113 166.5C112 159 126 156.5 118 145C112.5 138.5 100.5 142 105 149.5C105 147.9 105.5 145 108 144.5C112.5 143.599 117 153.214 109.5 157.5Z" fill="#8BCDE6"/>
<path d="M138 165C114 168 117 193.5 97.5 196C109.1 198.4 114.5 185.5 120.5 185.5C126.5 184.5 133 188.5 142 188.5C152 187.5 157 172 167.5 161C163 164.5 148.5 163.688 138 165Z" fill="#8BCDE6"/>
<path d="M73.5 207C61.1 204.6 61.5 191 55 182.5C70.2726 189.238 82.0097 192.842 99 188C101 187.43 105 183.5 98.5 182C98.9608 181.626 102.048 181.5 103 183.5C106 191 89.5 195.167 83 195C90 200 96.5 199.5 107 201C95.5 201 85 209.226 73.5 207Z" fill="#8BCDE6"/>
<path d="M163.5 202C174.3 202 191 182 196.5 154.5C197.5 158.5 197.5 159.5 198.5 161C199.388 162.331 199.833 151.667 200.5 148C201.5 152 202.053 171 201.5 181.5C201 191 183 216.5 167.5 208C162.3 211.2 152 208 152 199.5C152 195.1 159 190.5 161.5 195.5C156.5 194.5 154.5 202 163.5 202Z" fill="#8BCDE6"/>
</g>
</g>
<defs>
<filter id="filter0_i_102_21" x="-20.2854" y="-27.0747" width="236.286" height="246.075" filterUnits="userSpaceOnUse" color-interpolation-filters="sRGB">
<feFlood flood-opacity="0" result="BackgroundImageFix"/>
<feBlend mode="normal" in="SourceGraphic" in2="BackgroundImageFix" result="shape"/>
<feColorMatrix in="SourceAlpha" type="matrix" values="0 0 0 0 0 0 0 0 0 0 0 0 0 0 0 0 0 0 127 0" result="hardAlpha"/>
<feOffset dx="-4" dy="-4"/>
<feGaussianBlur stdDeviation="5"/>
<feComposite in2="hardAlpha" operator="arithmetic" k2="-1" k3="1"/>
<feColorMatrix type="matrix" values="0 0 0 0 0 0 0 0 0 0 0 0 0 0 0 0 0 0 0.1 0"/>
<feBlend mode="normal" in2="shape" result="effect1_innerShadow_102_21"/>
</filter>
<clipPath id="clip0_102_21">
<rect width="200" height="200" fill="white"/>
</clipPath>
</defs>
</svg>
