<svg width="600" height="600" viewBox="0 0 600 600" fill="none" xmlns="http://www.w3.org/2000/svg">
<g clip-path="url(#clip0_8_132)">
<path d="M295.626 600H-9.03998L-9.03998 299.994L-9.03998 -0.0128174H295.626H600.291V299.994V600H295.626Z" fill="#96642C"/>
<path d="M587.676 592.014C440.639 590.047 293.531 576.971 146.542 587.571C94.6951 589.535 43.0674 591.451 -8.81386 591.931C32.7123 578.075 76.9519 587.099 119.729 582.492C232.841 581.783 346.229 571.987 459.098 583.408C502.811 586.152 546.602 587.91 590.413 587.893C601.101 591.017 592.74 593.993 587.682 592.014L587.676 592.014ZM557.745 550.851C408.15 554.577 258.245 561.413 108.804 550.442C69.5233 550.335 30.1691 552.082 -9.03998 548.994C128.869 548.525 251.187 545.154 381.979 552.301C460.49 544.519 503.179 551.951 567.159 542.518C593.602 541.12 590.354 557.187 566.47 550.832L562.104 550.768L557.745 550.851ZM596.423 538.549C385.502 544.089 199.977 543.18 5.89578 538.766C1.2094 521.437 45.2381 537.5 58.4518 532.598C244.572 547.375 418.755 525.911 591.462 530.53C594.563 531.629 598.058 534.893 596.427 538.549L596.423 538.549ZM588.39 524.436C541.512 519.038 494.324 521.747 447.613 526.943C341.182 534.215 234.383 534.744 127.869 529.111C87.1579 527.393 45.0843 529.141 5.33619 522.597C27.6315 516.423 55.1323 523.75 79.5115 523.585C109.046 525.401 138.675 526.809 168.261 525.394C112.148 519.124 55.2395 523.291 -0.614307 514.238C79.3818 516.003 159.133 524.375 239.227 524.12C326.964 525.689 414.612 519.317 501.679 509.354C527.725 507.855 573.319 508.779 587.178 512.27C545.382 514.573 503.241 508.171 461.801 516.408C27.4626 531.969 264.471 530.553 536.468 516.009C549.438 516.513 590.092 512.751 588.386 524.436H588.39ZM298.327 531.322C300.489 534.945 300.846 527.516 298.327 531.322V531.322ZM597.268 491.606C504.714 486.42 411.934 488.353 319.332 484.085C247.879 510.913 170.153 500.628 95.7838 496.642C68.59 486.421 7.05351 506.411 1.60047 482.341C49.208 477.031 98.7293 490.952 145.055 473.646C175.353 459.613 208.603 457.503 241.635 458.655C308.79 464.367 393.349 454.328 468.683 445.436C502.059 441.749 535.592 442.459 568.971 439.386C585.354 438.069 598.926 453.334 573.834 449.996C538.703 452.258 502.639 446.601 468.074 453.605C465.421 477.773 511.614 466.393 529.83 472.742C552.273 477.155 582.639 473.593 599.649 486.9L598.809 489.582L597.276 491.603L597.268 491.606ZM588.985 476.47C567.608 468.759 509.384 475.829 510.191 456.619C532.364 452.752 574.252 451.308 584.788 457.542C570.777 459.113 525.679 447.257 532.492 466.034C549.415 468.541 571.311 465.291 588.985 476.469V476.47ZM592.258 438.732C501.226 430.553 410.363 443.951 320.022 453.338C268.712 457.335 217.141 457.139 165.762 454.462C145.907 455.956 116.856 494.116 116.403 458.335C88.9431 447.19 58.3599 460.227 29.5333 456.946C-16.4331 447.814 69.7456 466.861 57.0044 445.237C42.9231 444.101 -9.43771 437.689 30.3485 440.898C159.117 454.94 290.278 461.225 418.357 437.958C464.783 433.671 511.461 433.658 557.979 430.76C566.841 439.929 585.102 428.993 592.265 438.732L592.258 438.732ZM593.745 432.133C563.829 422.857 531.685 431.94 502.832 420.381C486.215 416.755 437.717 430.602 438.478 422.366C489.192 415.05 541.223 417.372 591.108 427.691C593.441 428.234 593.241 430.347 593.741 432.133L593.745 432.133ZM597.018 420.301C565.954 411.307 532.921 415.079 502.283 406.983C397.191 412.718 292.051 436.221 193.666 434.276C158.589 430.509 122.035 444.383 88.1969 429.295C61.4934 425.843 27.8945 434.606 6.7179 423.002C-23.1001 405.211 34.2009 418.432 45.0724 419.194C129.351 429.06 185.314 421.379 299.278 423.143C377.705 402.073 458.037 397.453 533.061 401.258C547.975 404.256 601.967 406.868 597.013 420.302L597.018 420.301ZM589.283 375.463C490.998 368.578 391.916 365.778 293.852 377.129C319.271 380.53 316.797 399.321 292.059 396.331C238.885 406.338 183.448 416.665 130.122 401.529C94.7508 393.867 60.0046 382.056 23.578 380.215C33.4083 385.139 78.644 397.41 45.0629 389.958C31.2958 393.991 -17.1674 371.232 19.1068 373.219C30.1756 375.698 73.7598 384.337 66.4074 375.521C42.8374 372.455 -16.6271 376.378 0.736456 337.993C43.1802 334.297 85.8226 332.609 127.125 321.777C156.128 322.153 195.755 319.304 217.576 336.649C196.528 346.307 163.304 335.372 148.099 351.89C186.679 373.788 206.661 356.943 274.607 360.3C387.999 377.254 486.373 332.14 592.114 353.213C568.465 357.812 604.591 355.272 581.788 360.786C548.735 364.479 515.157 355.34 482.628 366.218C518.095 368.477 555.688 357.348 590.112 370.02C599.321 376.702 598.395 375.624 589.274 375.464L589.283 375.463ZM592.283 373.113C594.444 376.737 594.802 369.307 592.283 373.113V373.113ZM374.066 364.874C325.964 364.518 264.537 370.188 209.701 373.895C219.694 381.327 268.746 382.52 234.356 393.509C195.878 408.838 155.394 391.432 118.531 379.874C103.563 374.159 90.0996 388.373 112.389 386.895C152.157 396.382 193.426 406.604 234.517 399.588C260.208 406.656 274.685 375.027 248.749 374.693C274.296 367.008 302.638 371.45 329.289 367.647C359.746 366.092 390.273 365.315 420.76 366.443C405.262 364.582 389.62 365.543 374.061 364.874L374.066 364.874ZM266.419 387.479C257.348 390.772 271.335 383.012 266.419 387.479V387.479ZM588.984 348.251C574.862 356.988 543.956 332.857 575.585 336.171C584.592 334.069 613.921 342.384 588.984 348.251ZM598.802 332.828C555.85 328.928 514.186 342.091 472.544 349.355C384.154 356.498 294.708 361.902 206.545 349.205C212.622 341.363 264.996 343.284 241.089 332.057C217.546 333.561 214.685 305.871 241.507 314.699C345.412 308.139 449.62 311.167 553.599 306.489C449.463 314.048 344.761 309.117 240.746 318.848C232.782 335.545 293.338 329.954 261.005 344.7C307.245 359.48 356.684 352.583 404.364 352.456C467.904 348.423 530.241 328.131 594.197 332.038L598.802 332.828ZM567.264 302.868C489.234 307.812 326.614 309.637 205.89 308.757C134.963 300.53 63.2212 296.111 -8.08956 302.05C1.66045 287.674 58.581 299.636 16.924 295.786C-3.55528 297.516 -5.05243 291.24 15.951 292.807C89.2683 294.176 162.726 290.375 235.858 297.407C267.555 299.811 298.783 293.501 330.399 298.806C417.918 300.282 505.368 292.786 592.912 293.588C607.22 307.612 573.096 300.616 567.262 302.867L567.264 302.868ZM557.743 295.79C540.508 297.818 517.714 295.776 503.926 299.682C521.85 298.501 540.394 301.775 557.743 295.79ZM597.017 280.205C504.058 285.411 408.683 282.484 294.124 280.772C211.474 274.543 128.248 267.313 45.6196 277.89C32.0251 281.191 -23.7715 276.389 14.2236 273.324C61.0957 270.516 108.056 268.563 155.012 267.565C184.388 267.358 213.761 267.797 243.132 268.161C211.078 253.618 174.204 264.032 140.196 260.968C98.6469 264.438 56.947 265.167 15.5922 269.698C-17.9007 258.776 36.1298 256.519 47.8297 256.668C246.838 245.875 417.332 272.238 597.013 261.677C482.897 287.543 356.494 261.306 248.766 263.826C290.378 279.398 327.375 268.299 394.803 277.291C442.486 278.624 490.264 277.681 537.794 273.612C559.101 287.11 577.103 257.361 597.031 280.205L597.017 280.205ZM597.612 231.939C547.286 234.144 497.709 246.421 447.1 243.447C301.563 246.462 156.382 232.708 10.8925 232.092C-5.07385 220.623 47.2239 230.11 57.1779 229.246C182.162 232.013 335.637 243.539 475.677 238.444C510.254 242.271 533.001 221.902 567.063 225.914C577.07 226.826 593.713 217.243 597.619 231.939L597.612 231.939ZM594.637 219.734C541.976 213.53 489.889 225.55 438.353 233.986C369.011 240.776 299.337 235.353 229.883 233.741C268.824 226.506 308.714 233.859 348.08 231.277C394.336 231.423 439.927 223.079 485.322 215.884C522.106 213.096 559.188 213.312 595.845 217.608L595.986 219.011L594.637 219.734ZM598.481 210.495C523.537 207.092 447.814 208.378 374.219 223.606C266.098 229.544 157.382 227.887 49.8569 214.576C36.4147 215.414 -8.50681 217.514 4.73662 197.696C57.2236 199.159 108.711 210.564 160.771 215.88C340.321 220.696 334.133 218.635 388.639 205.022C431.591 202.088 474.992 198.142 517.824 198.095C545.127 199.836 581.395 188.99 597.458 209.466L598.457 209.831L598.496 210.494L598.481 210.495ZM516.388 191.756C370.577 189.902 224.29 210.775 78.9548 191.679C59.3908 191.667 7.42387 193.171 8.61992 186.999C141.126 192.395 273.941 199.441 406.423 189.887C470.569 187.731 534.751 186.098 598.945 186.874C572.928 199.845 543.72 187.259 516.381 191.756H516.388ZM594.637 148.082C551.169 148.181 507.719 145.485 464.535 140.71C478.662 106.518 522.944 136.101 550.514 129.561C563.378 130.098 604.164 123.792 594.642 148.082H594.637ZM594.637 121.466C579.494 118.834 529.082 115.49 569.275 115.527C577.998 115.708 587.043 116.935 594.637 121.466ZM591.067 84.4898C438.151 86.6796 285.092 60.072 132.45 79.7032C86.7143 87.2491 40.4384 86.0173 -5.70889 84.2377C49.6117 71.4476 109.483 82.9199 125.523 73.5696C248.104 64.0374 371.112 70.4949 493.847 72.2393C526.129 78.6481 569.35 74.958 595.517 83.6953L591.067 84.4898ZM585.116 75.7216C545.345 70.8976 506.07 58.4689 465.773 66.2951C369.171 68.4169 272.548 66.2736 175.948 65.8897C307.763 64.2545 439.96 64.289 571.561 63.096C580.079 62.9078 610.837 78.6189 585.126 75.722L585.116 75.7216ZM435.187 66.0825C437.349 69.7063 437.707 62.277 435.187 66.0825V66.0825ZM572.656 46.6196C563.242 40.3567 542.289 52.7922 564.758 51.267C483.971 46.5228 402.38 38.0397 322.013 51.7796C251.597 55.4265 181.117 48.7643 110.592 50.1249C72.7751 47.444 31.9071 54.949 -4.0506 44.3093C-25.1273 15.8228 11.5123 -11.329 37.6672 4.83971C207.006 -1.43698 376.501 0.465955 545.923 1.92767C569.885 -2.77622 602.756 9.84949 598.935 35.7991C594.731 45.7762 582.463 49.8068 572.649 46.6194L572.656 46.6196ZM264.682 18.3299C188.733 14.8417 112.599 17.2643 36.8491 23.4144C66.0922 38.0538 101.32 26.2443 132.884 31.6824C179.922 31.2874 226.858 26.956 273.375 20.2346C270.566 19.0857 267.708 18.5086 264.677 18.3299H264.682ZM253.475 23.3493C246.475 24.8754 255.681 20.677 253.475 23.3493V23.3493ZM138.854 2.8117C141.016 6.43557 141.374 -0.993806 138.854 2.8117V2.8117ZM134.094 2.8117C136.255 6.43557 136.613 -0.993806 134.094 2.8117V2.8117ZM592.651 224.922C585.651 226.448 594.857 222.25 592.651 224.922V224.922ZM573.194 349.507C560.114 355.6 572.82 343.507 573.194 349.507V349.507ZM554.843 166.772C558.247 182.039 529.877 160.216 540.25 177.41C423.332 180.023 306.407 186.541 189.444 185.011C158.932 183.742 128.119 179.945 97.8563 180.658C75.2111 162.355 125.594 168.824 138.473 164.556C168.538 162.953 198.115 158.218 227.354 151.663C295.339 135.107 158.061 129.162 134.864 124.884C111.218 119.178 77.032 126.451 60.0719 109.264C85.7709 99.8255 114.975 101.712 141.977 96.1337C232.639 84.8047 326.109 80.9388 415.855 98.8437C381.955 115.568 340.401 115.812 303.553 126.179C327.519 118.887 282.809 138.496 313.014 138.784C361.206 145.359 409.505 151.521 457.73 158.107C489.939 162.236 522.878 163.375 554.944 165.588L554.839 166.771L554.843 166.772ZM451.854 172.727C454.016 176.351 454.373 168.921 451.854 172.727V172.727ZM288.953 157.533C250.827 163.249 212.345 166.627 174.438 173.74C213.213 185.628 254.794 179.06 294.745 179.004C329.201 177.332 363.916 178.566 398.1 173.243C413.966 148.767 298.938 156.822 288.951 157.533L288.953 157.533ZM348.64 98.358C269.52 86.3414 188.822 93.7006 110.525 107.889C143.791 131.586 186.562 118.266 224.196 124.499C266.626 122.313 310.175 117.422 348.633 98.3587L348.64 98.358ZM553.956 421.896C544.837 423.728 557.503 417.668 553.956 421.896V421.896ZM537.521 196.165C521.56 194.659 545.695 194.031 537.521 196.165V196.165ZM509.245 92.1997C492.141 95.1353 486.756 87.1501 508.384 89.6532C523.334 89.2361 533.783 94.1845 509.245 92.1997ZM528.665 116.164C514.143 121.702 481.602 113.466 515.731 114.751C520.069 114.695 524.504 114.791 528.665 116.164ZM520.037 461.745C512.801 463.219 523.437 458.007 520.037 461.745V461.745ZM514.015 272.847C504.889 272.98 518.987 271.202 514.015 272.847V272.847ZM505.09 272.756C495.418 271.87 514.761 271.87 505.09 272.756V272.756ZM503.404 442.904C496.403 444.431 505.609 440.232 503.404 442.904V442.904ZM495.573 272.803C487.373 272.159 503.773 272.159 495.573 272.803V272.803ZM454.514 592.685C312.583 581.671 332.481 594.075 450.075 590.783C460.56 591.148 475.71 593.219 454.514 592.685ZM463.884 328.632C441.427 328.437 383.432 342.866 381.727 328.049C408.409 321.734 435.249 316.316 463.884 328.632ZM443.51 548.879C414.704 552.077 430.607 544.331 449.97 547.952L443.51 548.879ZM415.046 544.174C410.155 552.18 407.113 541.507 415.046 544.174V544.174ZM396.933 433.625C335.995 442.996 273.983 442.721 212.455 444.257C147.777 445.257 132.924 449.903 7.07969 433.029C22.1475 425.727 68.2782 441.529 94.6461 439.69C159.474 442.552 224.486 441.277 289.323 440.217C321.349 423.923 376.973 463.513 396.921 433.625L396.933 433.625ZM317.458 551.987C505.851 584.019 411.653 568.004 317.458 551.987V551.987ZM299.904 378.089C293.313 386.388 291.266 374.878 299.904 378.089V378.089ZM264.2 269.471C257.199 270.998 266.405 266.799 264.2 269.471V269.471ZM246.348 268.299C239.348 269.826 248.554 265.627 246.348 268.299V268.299ZM240.398 323.379C233.397 324.905 242.603 320.706 240.398 323.379V323.379ZM223.57 87.9206C219.284 83.4577 231.801 88.8041 223.57 87.9206V87.9206ZM184.963 232.51C123.549 231.309 62.0016 228.76 1.1518 220.09C34.2473 210.605 67.0488 228.297 100.486 226.6C134.68 228.8 169.111 227.874 203.113 232.602C197.066 233.045 191.014 232.47 184.964 232.509L184.963 232.51ZM174.946 1.11798C167.946 2.64414 177.152 -1.5543 174.946 1.11798V1.11798ZM173.357 67.2436C127.226 69.1762 102.104 78.4929 3.25578 76.2205C7.73865 60.4795 50.5277 72.9612 69.3754 68.4002C104.008 67.3183 138.765 63.3181 173.362 67.2436H173.357ZM61.5147 69.6449C63.6763 73.2688 64.0342 65.8394 61.5147 69.6449V69.6449ZM164.74 0.877862C155.069 -0.0080355 174.412 -0.0080355 164.74 0.877862V0.877862ZM153.91 348.698C138.35 352.511 159.759 344.124 153.91 348.698V348.698ZM151.756 314.092C103.634 320.432 55.4325 326.197 7.20608 331.705C30.2821 318.414 62.0816 325.101 88.5244 320.362C104.553 321.568 122.958 304.675 95.7821 304.197C72.5359 300.291 24.926 308.488 16.3608 304.076C61.0633 302.222 106.731 298.974 150.521 310.234C138.95 307.3 151.702 311.618 151.757 314.092L151.756 314.092ZM150.853 200.808C125.601 200.003 70.2467 196.377 64.4343 193.574C93.3597 194.227 122.178 197.147 150.853 200.808ZM144.165 412.23C129.502 411.486 96.3004 400.411 130.43 406.073C135.429 406.819 140.64 408.419 144.165 412.23ZM127.254 2.36967C117.137 0.868698 138.833 0.577363 127.254 2.36967V2.36967ZM114.865 312.759C109.25 316.177 117.148 306.25 114.865 312.759V312.759ZM102.262 2.07669C91.1273 1.74236 109.539 0.914402 102.262 2.07669V2.07669ZM94.5843 471.13C45.5474 478.595 -32.3518 467.192 55.8549 462.575C68.7817 464.133 83.0558 464.52 94.5843 471.13ZM78.7905 144.662C56.3749 143.642 0.112952 161.772 2.58003 134.431C28.5682 127.365 53.2723 142.822 78.7905 144.662ZM78.559 105.41C71.5589 106.936 80.7648 102.738 78.559 105.41V105.41ZM72.5086 332.091C67.3251 329.721 81.1406 331.165 72.5086 332.091V332.091ZM55.9459 462.828C48.9458 464.354 58.1517 460.156 55.9459 462.828V462.828ZM25.0033 215.557C18.0032 217.083 27.2091 212.885 25.0033 215.557V215.557Z" fill="#8C5829"/>
</g>
<defs>
<clipPath id="clip0_8_132">
<rect width="600" height="600" fill="white" transform="translate(0 600) rotate(-90)"/>
</clipPath>
</defs>
</svg>
