<svg width="200" height="200" viewBox="0 0 200 200" fill="none" xmlns="http://www.w3.org/2000/svg">
<g clip-path="url(#clip0_102_219)">
<rect width="200" height="200" transform="matrix(-1 0 0 1 200 0)" fill="white"/>
<g filter="url(#filter0_i_102_219)">
<path d="M208.499 97.5001C207.149 98.6567 205.964 99.8876 204.932 101.169C191.495 115.336 187.273 123.077 154.5 124C145.3 124 146 137.5 152.5 139C150.5 140.2 143.5 141 139 141C128.2 141 133.5 124.5 143.5 127.5C141.5 122.7 130.5 127.5 130.5 135C130.5 144.2 138 151 146 152C157.568 153.446 175.177 153.498 184.94 135.583C181.88 142.545 178.424 158.137 182 163.5C186 169.5 201.5 195.042 190 196C185.2 196.4 183.5 191 190 191C190 188.2 183.5 190.2 183.5 193C183.5 195.8 186 199.5 191 199.5C197 198.7 204 191 204 180L208.499 184.5C213.5 192 219 173 208.499 163.5C204.098 162.3 192.5 152 194 139C194 145 201 157.875 208.499 161C213.298 163 217 147 208.499 147C207.298 147 202 141 208.499 141C217.699 141 220 133.712 208.499 131.5C199.101 129.693 195.256 113.188 204.932 101.169C206.05 99.9908 207.231 98.7676 208.499 97.5001Z" fill="#DFF2F9"/>
<path d="M34 84.5C24 84 12 70 21.5005 51C19.1009 53.4 12 60 12 70C12 78 25 92 34 84.5Z" fill="#DFF2F9"/>
<path d="M181.5 76.5002C178 73.5002 165 88.0001 209 89.5002C203 96.2999 190.5 100 178 88.5002C170.743 81.8236 175 70.9288 181.5 76.5002Z" fill="#DFF2F9"/>
<path d="M-10 37.5C-6 49 17 47 27.5 36.5C19 40 -6.88889 39 2 19C5.2 11.8 12.5 13.5 17 21.5C20.2 15.9 12 8 3 8C-7 8 -15.0435 23 -10 37.5Z" fill="#DFF2F9"/>
<path d="M20 95C20 84.5 -1.90735e-06 85 3 65.5C-1.6875 71.5 1.25 83 3.5 86C4.7 87.6 9 91.5 5 92C1 92.5 -5 80 0 63C-5 66 -7.61539 85.5 -6 96C-4 109 20 115.5 20 95Z" fill="#DFF2F9"/>
<path d="M15.4997 121.5C29.9996 124 8.00053 148 -16.0003 121.5C-12.5 127.5 4 140.5 14.5 146.5C25.2064 152.618 43.5 161.833 53 155.5C56.6 153.1 70 147 78 149.5C78 147.9 80 144.333 81 143.5C80.6 141.9 77 140 70.5 135.5C73.7 135.1 77.3333 130 78 128C79.1667 124.5 85.4999 122.5 85.4999 128.5C91 122.5 82.9993 114.5 73.4997 117.5C73.4997 110.3 72.5828 101.5 65.4997 96.5001C56.9997 90.5 36.9997 87.5001 42.0005 100.5C40.4997 88.5001 67.4998 98.0002 47.4997 119.5C45.9997 113 28.4997 110.5 31.9997 120.5C30.9997 116.5 36.4997 115.501 37.4995 118.5C39.4996 124.5 35.4997 129 29.9995 131.5C29.9995 125.9 21.9995 117 15.4997 121.5Z" fill="#DFF2F9"/>
<path d="M22.0005 23.0007C26.8005 14.6007 16.5004 -4.99958 -8.99953 -0.999345C-0.5 -10.5 31.1406 -4.99975 33.0004 10.5004C34.5002 23.0007 25.0005 31.29 19.0004 33.5004C10 36.816 0.500374 24.5004 9.50037 19.5004C3.90037 26.3004 18.2863 29.5004 22.0005 23.0007Z" fill="#DFF2F9"/>
<path d="M132 77.5001C133.5 62.5001 157.5 50 192 73.5001C180.5 73.5001 152 68.8688 136.5 80.5001C129.171 86.0001 135.5 94.0001 140.5 87.5001C137.5 101 122 83.5001 132 77.5001Z" fill="#DFF2F9"/>
<path d="M195 46.0005C189 50.0005 199 63.5004 208.5 72.0005C186 70.5001 164.5 26.5001 195 26.5001C211.5 26.5001 211 63.5001 208.5 67.0005C199.944 63.0001 201 42.0006 195 46.0005Z" fill="#DFF2F9"/>
<path d="M174.501 28.4988C170.001 47.9988 180.501 65.4988 208.501 74.9988C167 66.5001 142.704 38.5001 159 -1.49978C164.5 -14.9999 152 -16.9999 155.5 -6.50106C145.1 -14.9016 164 -27.9999 172.501 -6.50106C191 -17.0004 213 -6.50091 208.501 12.4988C203.701 2.49882 179.001 8.99903 174.501 28.4988Z" fill="#DFF2F9"/>
<path d="M175 100.5C183 101 200 102.5 208 93.5001C192.5 113 185.167 117 162.5 113C154 111.5 149.5 95.6876 159 94.5001C165.4 93.7001 165.833 97.3335 165.5 99.5001C165.5 95.5001 156.786 95.0001 156 100.5C155.667 102.833 156.8 107.5 164 107.5C171.2 107.5 174.333 102.833 175 100.5Z" fill="#DFF2F9"/>
<path d="M176.5 183C178.9 176.6 172 167.5 176.5 148L159.5 163.5C151.1 169.9 151.5 182 155 188.5C158.5 197 156.516 205.5 146.5 219C158 203.5 171.063 197.5 176.5 183Z" fill="#DFF2F9"/>
<path d="M86.999 43.9999C86.999 19.5999 38.499 -26.4999 -12.501 -6.00013C13 -12.4999 58.5 -9.49988 70.5 31.5001C74.5 45.1668 66 58.0386 50.5 64.0001C44 66.5001 29.1538 63.0001 31 55.0001C32.2 49.8001 39 49.0001 44 52.5001C44 49.7001 40 46.5001 34.5 46.5001C27.7 46.5001 22.5 61.5001 32.5 73.0001C32.5 78.2001 41.5 90.5001 64 84.0001C64 88.5001 69.5 98.0001 76.499 97.5001C77.5 95.5001 82 92.0001 83.5 92.5001C85 89.0001 82 87.5001 79.5 87.5001C84 91.0001 74.9308 97.0001 76.499 85.5001C77.699 76.7001 86.999 76.5001 86.999 43.9999Z" fill="#DFF2F9"/>
<path d="M63.5001 41.9999C71.9001 26.3999 54.9993 6.00012 33 -3.49988C41.2492 0.0623875 51.5001 11.0003 51.5001 23.4999C51.5001 25.4999 51.5001 26.4999 49.5001 26.4999C46.5001 26.4999 51.0001 7.49988 31.0015 -0.000122547C44.5001 9.49988 37.0001 22.4999 37.0001 33.9999C37.0001 45.4999 56.5001 54.9999 63.5001 41.9999Z" fill="#DFF2F9"/>
<path d="M117 -12.0002C117 -4.80019 106.5 8.9998 76 8.9998C81.2 8.9998 107.5 -3.99988 111.5 -12.0002C113.9 -16.8002 107.5 -19.9999 101.5 -18.5C105.5 -24.9999 117 -20.0002 117 -12.0002Z" fill="#DFF2F9"/>
<path d="M131 5.50012C128.737 13.9854 118.5 27.5001 75.0005 12.4993C105 9.00012 118.231 2.23313 126.5 -5.00071C130.5 -8.49988 129 -16.4999 120.501 -13.5007C125 -22.9999 137.001 -16.0004 132.001 -5.00071C129 0.000102997 133 -1.99988 131 5.50012Z" fill="#DFF2F9"/>
<path d="M77.5 104.5C80 114 100.5 117.5 107 102C104.5 102 101 101.5 98.5 100C98.1 100.4 94 107.5 87.5 107.5C80 107.5 77.5 90.0001 90 99.5004C85.5 88.0001 75 95.0006 77.5 104.5Z" fill="#DFF2F9"/>
<path d="M108.5 93.5001C110.9 88.7001 108.5 67.5001 100.5 53.5001C103.3 59.9001 104.5 81.0001 102.5 93.5001C104 94.5001 106.5 94.5001 108.5 93.5001Z" fill="#DFF2F9"/>
<path d="M126.5 80.0001C131.5 64.5001 124 31.0001 73.4996 15.0001C113 51.0001 119.5 95.5001 105.5 95.5001C99.9 95.5001 96.6014 91.0001 101 86.5001C94.6 86.5001 95.5 98.0808 101 99.5001C113.4 102.7 118 98.0001 119.5 88.5001C122.7 87.7001 125 84.6485 126.5 80.0001Z" fill="#DFF2F9"/>
<path d="M98.5 123C98.5 129 116 146 140 152.5C121.5 163.5 84.9813 146 93.5 123C98.5 109.5 108 117.5 105.5 123C105.5 117 98.5 118.5 98.5 123Z" fill="#DFF2F9"/>
<path d="M90.5 157.5C108 167.5 145 162 166 154.5C155.5 166.5 111.5 200 87 166.5C88 159 74 156.5 82 145C87.5 138.5 99.5 142 95 149.5C95 147.9 94.5 145 92 144.5C87.5 143.599 83 153.214 90.5 157.5Z" fill="#DFF2F9"/>
<path d="M62 165C86 168 83 193.5 102.5 196C90.9 198.4 85.5 185.5 79.5 185.5C73.5 184.5 67 188.5 58 188.5C48 187.5 43 172 32.5 161C37 164.5 51.5 163.688 62 165Z" fill="#DFF2F9"/>
<path d="M126.5 207C138.9 204.6 138.5 191 145 182.5C129.727 189.238 117.99 192.842 101 188C99 187.43 95 183.5 101.5 182C101.039 181.626 97.9524 181.5 97 183.5C94 191 110.5 195.167 117 195C110 200 103.5 199.5 93 201C104.5 201 115 209.226 126.5 207Z" fill="#DFF2F9"/>
<path d="M36.4997 202C25.6997 202 8.99971 182 3.49971 154.5C2.5 158.5 2.5 159.5 1.5 161C0.61248 162.331 0.166668 151.667 -0.5 148C-1.5 152 -2.05263 171 -1.5 181.5C-1 191 17 216.5 32.5 208C37.7 211.2 48 208 48 199.5C48 195.1 41 190.5 38.4997 195.5C43.5 194.5 45.5 202 36.4997 202Z" fill="#DFF2F9"/>
</g>
</g>
<defs>
<filter id="filter0_i_102_219" x="-20.0002" y="-27.0747" width="236.286" height="246.075" filterUnits="userSpaceOnUse" color-interpolation-filters="sRGB">
<feFlood flood-opacity="0" result="BackgroundImageFix"/>
<feBlend mode="normal" in="SourceGraphic" in2="BackgroundImageFix" result="shape"/>
<feColorMatrix in="SourceAlpha" type="matrix" values="0 0 0 0 0 0 0 0 0 0 0 0 0 0 0 0 0 0 127 0" result="hardAlpha"/>
<feOffset dx="-4" dy="-4"/>
<feGaussianBlur stdDeviation="5"/>
<feComposite in2="hardAlpha" operator="arithmetic" k2="-1" k3="1"/>
<feColorMatrix type="matrix" values="0 0 0 0 0 0 0 0 0 0 0 0 0 0 0 0 0 0 0.1 0"/>
<feBlend mode="normal" in2="shape" result="effect1_innerShadow_102_219"/>
</filter>
<clipPath id="clip0_102_219">
<rect width="200" height="200" fill="white" transform="matrix(-1 0 0 1 200 0)"/>
</clipPath>
</defs>
</svg>
