<svg width="300" height="300" viewBox="0 0 300 300" fill="none" xmlns="http://www.w3.org/2000/svg">
<g clip-path="url(#clip0_8_99)">
<path d="M241.807 270.522V297.033H58V270.522C58 252.848 72.139 242.244 88.0454 242.244H211.762C227.668 242.244 241.807 252.848 241.807 270.522Z" fill="#00AEEF"/>
<path d="M194.307 242.244H104.307C99.8074 225 73.3074 217.5 73.3074 172.5C73.3074 136.5 97.2074 102.8 130.807 76C119.307 58 126.807 37 148.807 37C170.807 37 172.307 60.5 169.307 63.5C133.807 112.5 136.307 143 136.307 172.5H163.807C163.807 133.5 160.807 116.5 180.307 88C205.307 108 225.307 142 225.307 172.5C225.307 217.5 198.807 225 194.307 242.244Z" fill="#00AEEF"/>
<path d="M133.307 175.5C110.807 150 123.807 117 149.807 88.5C137.307 125 135.307 157 133.307 175.5Z" fill="#0095CD"/>
<path d="M204.807 119C216.307 184 193.807 218.5 152.807 239.5H196.807C212.807 215 227.307 201.5 225.307 165C223.141 152.833 216.007 126.6 204.807 119Z" fill="#0095CD"/>
<path d="M104.307 242.244H88.0454C86.59 242.244 85.1494 242.333 83.733 242.508C69.67 244.244 58 254.465 58 270.522V297.033H241.807V283.777V270.522C241.807 255.528 231.631 245.622 218.832 242.963C216.544 242.488 214.174 242.244 211.762 242.244H104.307ZM104.307 242.244C99.8074 225 73.3074 217.5 73.3074 172.5C73.3074 136.5 97.2074 102.8 130.807 76C119.307 58 126.807 37 148.807 37C170.807 37 171.807 59.9789 167.807 65.5C132.307 114.5 136.307 143 136.307 172.5H163.807C163.807 133.5 160.807 116.5 180.307 88C205.307 108 225.307 142 225.307 172.5C225.307 217.5 198.807 225 194.307 242.244" stroke="#6A919F" stroke-width="6"/>
</g>
<defs>
<clipPath id="clip0_8_99">
<rect width="300" height="300" fill="white"/>
</clipPath>
</defs>
</svg>
