<svg width="300" height="300" viewBox="0 0 300 300" fill="none" xmlns="http://www.w3.org/2000/svg">
<g clip-path="url(#clip0_8_114)">
<path d="M240.307 270.278V296.789H56.5V270.278C56.5 252.604 70.639 242 86.5454 242H210.262C226.168 242 240.307 252.604 240.307 270.278Z" fill="#00AEEF"/>
<path fill-rule="evenodd" clip-rule="evenodd" d="M98.5 242.244H101.807H109H212C215.006 233.885 224.649 225.42 235.517 215.879C253.569 200.031 275 181.217 275 155C275 103 221 71.5 172 104L165.5 79.5H190V47H165.5V25H149.5H133.5V47H109V79.5H133.5L127 104C78 71.5 24 103 24 155C24 181.217 45.4308 200.031 63.4832 215.879C74.3506 225.42 83.9938 233.885 87 242.244H98.5ZM125.5 198H107.5C107.5 198 77.5 172.5 77.5 157C77.5 143 88.5 138.5 100 138.5C109.6 138.5 117 143 125.5 150.5V198ZM172 198H190C190 198 220 172.5 220 157C220 143 209 138.5 197.5 138.5C187.9 138.5 180.5 143 172 150.5V198Z" fill="#00AEEF"/>
<path d="M269.5 134C265 191 208 207 197.5 239.5H215C227.5 215 295.5 180.5 269.5 134Z" fill="#0095CD"/>
<path d="M87 242.244H85.5454C84.09 242.244 82.6494 242.333 81.233 242.508C67.17 244.244 55.5 254.465 55.5 270.522V297.033H239.307V270.522C239.307 255.528 229.131 245.622 216.332 242.963C214.044 242.488 211.674 242.244 209.262 242.244H109H101.807H98.5H87ZM87 242.244C79 220 24 197 24 155C24 103 78 71.5 127 104L133.5 79.5H109V47H133.5V25H149.5H165.5V47H190V79.5H165.5L172 104C221 71.5 275 103 275 155C275 197 220 220 212 242.244M107.5 198H125.5V150.5C117 143 109.6 138.5 100 138.5C88.5 138.5 77.5 143 77.5 157C77.5 172.5 107.5 198 107.5 198ZM190 198H172V150.5C180.5 143 187.9 138.5 197.5 138.5C209 138.5 220 143 220 157C220 172.5 190 198 190 198Z" stroke="#6A919F" stroke-width="6"/>
</g>
<defs>
<clipPath id="clip0_8_114">
<rect width="300" height="300" fill="white"/>
</clipPath>
</defs>
</svg>
