<svg width="300" height="300" viewBox="0 0 300 300" fill="none" xmlns="http://www.w3.org/2000/svg">
<path d="M232.5 296.5H68C68 234 128 245 128 192C111.5 192 99.5 192 99.5 178C99.5 170.5 114 166.5 124 159.5C113.5 149.5 108 143.5 108 127C108 106.5 120.8 86 150 86C179.2 86 192.5 106.5 192.5 127C192.5 143.5 187 149.5 176.5 159.5C186.5 166.5 201 170.5 201 178C201 192 189 192 172.5 192C172.5 245 232.5 234 232.5 296.5Z" fill="#00AEEF"/>
<path d="M213 253C163.5 242 153 214.5 128.5 193.5V189H173C173 229 206.5 236 213 253Z" fill="#0095CD"/>
<path d="M172.5 160C185.5 167 185 185.8 171 189C201.5 198.5 215.5 173 172.5 160Z" fill="#0095CD"/>
<path d="M147.5 158C164.5 155 196 134.5 169.5 91.5C205.5 109 194 144.5 178 158H147.5Z" fill="#0095CD"/>
<path d="M232.5 296.5H68C68 234 128 245 128 192C111.5 192 99.5 192 99.5 178C99.5 170.5 114 166.5 124 159.5C113.5 149.5 108 143.5 108 127C108 106.5 120.8 86 150 86C179.2 86 192.5 106.5 192.5 127C192.5 143.5 187 149.5 176.5 159.5C186.5 166.5 201 170.5 201 178C201 192 189 192 172.5 192C172.5 245 232.5 234 232.5 296.5Z" stroke="#6A919F" stroke-width="6"/>
</svg>
