<svg width="300" height="300" viewBox="0 0 300 300" fill="none" xmlns="http://www.w3.org/2000/svg">
<g clip-path="url(#clip0_8_105)">
<path d="M241.807 270.278V296.789H58V270.278C58 252.604 72.139 242 88.0454 242H211.762C227.668 242 241.807 252.604 241.807 270.278Z" fill="#4B4B4B"/>
<path d="M103.307 242.244H100H88.5L46 143.5C33.5 139.5 24 132.5 24 117.5C24 102.5 35 91 49.5 91C64 91 76 101 76 117.5C76 123 75.5 127 71 132.5L100 162L103 92C93.5 87.5 85 82 85 66.5C85 55 94.5 41 111 41C127.5 41 137 55 137 66.5C137 74 135.5 80.5 126.5 88L150 152L173.5 88C164.5 80.5 163 74 163 66.5C163 55 172.5 41 189 41C205.5 41 215 55 215 66.5C215 82 206.5 87.5 197 92L200 162L228.5 132C224 126.5 223.5 122.5 223.5 117C223.5 100.5 235.5 90.5 250 90.5C264.5 90.5 275.5 102 275.5 117C275.5 132 266 139 253.5 143L210.762 242.244H110.5H103.307Z" fill="#4B4B4B"/>
<path d="M245.5 136C219 180.5 209 213.5 155 240H213L253.5 143L262.5 139.5C269.7 134.7 278 121 272.5 111.5C265.5 127 250 134 245.5 136Z" fill="#353535"/>
<path d="M194 90.5C203.5 78 208.5 69 207.5 51.5C225 66.5 209 90.5 194 90.5Z" fill="#353535"/>
<path d="M123 44.5C132 55 128.3 80.7 123.5 87.5C132.5 87.5 149.8 60.5 123 44.5Z" fill="#353535"/>
<path d="M59 94C70 103.5 69.6 129.4 68 133C78 124.5 79 96.5 59 94Z" fill="#353535"/>
<path d="M210.762 242.244C213.174 242.244 215.544 242.488 217.832 242.963C230.631 245.622 240.807 255.528 240.807 270.522V297.033H57V270.522C57 254.465 68.67 244.244 82.733 242.508C84.1494 242.333 85.59 242.244 87.0454 242.244H88.5M210.762 242.244H110.5H103.307H100H88.5M210.762 242.244L253.5 143C266 139 275.5 132 275.5 117C275.5 102 264.5 90.5 250 90.5C235.5 90.5 223.5 100.5 223.5 117C223.5 122.5 224 126.5 228.5 132L200 162L197 92C206.5 87.5 215 82 215 66.5C215 55 205.5 41 189 41C172.5 41 163 55 163 66.5C163 74 164.5 80.5 173.5 88L150 152L126.5 88C135.5 80.5 137 74 137 66.5C137 55 127.5 41 111 41C94.5 41 85 55 85 66.5C85 82 93.5 87.5 103 92L100 162L71 132.5C75.5 127 76 123 76 117.5C76 101 64 91 49.5 91C35 91 24 102.5 24 117.5C24 132.5 33.5 139.5 46 143.5L88.5 242.244" stroke="#838383" stroke-width="6"/>
</g>
<defs>
<clipPath id="clip0_8_105">
<rect width="300" height="300" fill="white"/>
</clipPath>
</defs>
</svg>
