<svg width="300" height="300" viewBox="0 0 300 300" fill="none" xmlns="http://www.w3.org/2000/svg">
<g clip-path="url(#clip0_8_91)">
<path d="M190.692 243.385C190.692 181.846 171.461 145.308 123.384 133.769C136.846 131.846 136.846 131.846 148.384 131.846H148.384C171.461 131.846 184.923 131.846 206.077 139.538L217.615 243.385H190.692Z" fill="#353535"/>
<path d="M219.498 60.6923C216.461 100.785 211.846 110.692 186.846 133.769L206.27 139.48C225.359 133.671 233 119.087 233 99.1538V82.8077V66.4615C225.387 62.655 225.269 62.6158 219.675 60.7511L219.498 60.6923Z" fill="#353535"/>
<path d="M242.115 273.278V299.789H58.3075V273.278C58.3075 255.604 72.4465 245 88.3529 245H212.069C227.976 245 242.115 255.604 242.115 273.278Z" fill="#4B4B4B"/>
<path d="M194.538 89.5385V58.7692C208 58.7692 206.037 58.7692 219.498 60.6923C216.461 100.785 211.846 110.692 186.846 133.769C163.769 129.923 154.154 131.846 150.307 131.846C127.23 131.846 115.692 131.846 94.5382 139.538C75.3074 133.769 67.6151 119.154 67.6151 99.1539V66.4615C79.1536 58.7692 92.6151 58.7692 106.077 58.7692V89.5385H125.307V66.4615C125.307 53 125.307 53 136.846 53H150.307H163.769C175.307 53 175.307 53 175.307 66.4615V89.5385H194.538Z" fill="#4B4B4B"/>
<path d="M94.5382 139.538L82.9998 243.385H190.692C190.692 181.846 171.461 145.308 123.384 133.769C113.769 133.769 104.154 135.692 94.5382 139.538Z" fill="#4B4B4B"/>
<path d="M206.077 139.538L217.615 243.385H82.9998L94.5382 139.538M206.077 139.538C225.307 133.769 233 119.154 233 99.1538V82.8077V66.4615C221.461 58.7692 208 58.7692 194.538 58.7692V89.5385H175.307V66.4615C175.307 53 175.307 53 163.769 53H150.307H136.846C125.307 53 125.307 53 125.307 66.4615V89.5385H106.077V58.7692C92.6151 58.7692 79.1536 58.7692 67.6151 66.4615V99.1538C67.6151 119.154 75.3074 133.769 94.5382 139.538M206.077 139.538C184.923 131.846 173.384 131.846 150.307 131.846C127.231 131.846 115.692 131.846 94.5382 139.538M57 298.033V271.522C57 255.465 68.67 245.244 82.733 243.508C84.1494 243.333 85.59 243.244 87.0454 243.244H103.307H193.307H210.762C213.174 243.244 215.544 243.488 217.832 243.963C230.631 246.622 240.807 256.528 240.807 271.522V284.777V298.033H57Z" stroke="#838383" stroke-width="6"/>
</g>
<defs>
<clipPath id="clip0_8_91">
<rect width="300" height="300" fill="white"/>
</clipPath>
</defs>
</svg>
